<svg xmlns="http://www.w3.org/2000/svg" viewBox="0 0 1874.24 257.11"><defs><style>.cls-1{fill:#fff;}</style></defs><g id="Layer_2" data-name="Layer 2"><g id="Layer_1-2" data-name="Layer 1"><circle class="cls-1" cx="38.12" cy="77.3" r="38.12"/><circle class="cls-1" cx="88.92" cy="77.3" r="38.12"/><circle class="cls-1" cx="138.84" cy="77.3" r="38.12"/><circle class="cls-1" cx="182.64" cy="77.3" r="38.12"/><circle class="cls-1" cx="61.48" cy="38.12" r="38.12"/><circle class="cls-1" cx="111.4" cy="38.12" r="38.12"/><circle class="cls-1" cx="155.19" cy="38.12" r="38.12"/><circle class="cls-1" cx="500.91" cy="78.37" r="38.12"/><circle class="cls-1" cx="551.71" cy="78.37" r="38.12"/><circle class="cls-1" cx="601.64" cy="78.37" r="38.12"/><circle class="cls-1" cx="645.43" cy="78.37" r="38.12"/><circle class="cls-1" cx="524.27" cy="39.18" r="38.12"/><circle class="cls-1" cx="574.19" cy="39.18" r="38.12"/><circle class="cls-1" cx="617.99" cy="39.18" r="38.12"/><circle class="cls-1" cx="242.18" cy="219" r="38.12"/><circle class="cls-1" cx="292.98" cy="219" r="38.12"/><circle class="cls-1" cx="342.9" cy="219" r="38.12"/><circle class="cls-1" cx="386.7" cy="219" r="38.12"/><circle class="cls-1" cx="265.54" cy="179.81" r="38.12"/><circle class="cls-1" cx="315.46" cy="179.81" r="38.12"/><circle class="cls-1" cx="359.26" cy="179.81" r="38.12"/><circle class="cls-1" cx="768.21" cy="219" r="38.12"/><circle class="cls-1" cx="819.01" cy="219" r="38.12"/><circle class="cls-1" cx="868.93" cy="219" r="38.12"/><circle class="cls-1" cx="912.73" cy="219" r="38.12"/><circle class="cls-1" cx="791.57" cy="179.81" r="38.12"/><circle class="cls-1" cx="841.49" cy="179.81" r="38.12"/><circle class="cls-1" cx="885.29" cy="179.81" r="38.12"/><circle class="cls-1" cx="961.52" cy="77.3" r="38.12"/><circle class="cls-1" cx="1012.32" cy="77.3" r="38.12"/><circle class="cls-1" cx="1062.24" cy="77.3" r="38.12"/><circle class="cls-1" cx="1106.04" cy="77.3" r="38.12"/><circle class="cls-1" cx="984.88" cy="38.12" r="38.12"/><circle class="cls-1" cx="1034.8" cy="38.12" r="38.12"/><circle class="cls-1" cx="1078.6" cy="38.12" r="38.12"/><circle class="cls-1" cx="1424.31" cy="78.37" r="38.12"/><circle class="cls-1" cx="1475.11" cy="78.37" r="38.12"/><circle class="cls-1" cx="1525.04" cy="78.37" r="38.12"/><circle class="cls-1" cx="1568.83" cy="78.37" r="38.12"/><circle class="cls-1" cx="1447.67" cy="39.18" r="38.12"/><circle class="cls-1" cx="1497.6" cy="39.18" r="38.12"/><circle class="cls-1" cx="1541.39" cy="39.18" r="38.12"/><circle class="cls-1" cx="1165.58" cy="219" r="38.12"/><circle class="cls-1" cx="1216.38" cy="219" r="38.12"/><circle class="cls-1" cx="1266.3" cy="219" r="38.12"/><circle class="cls-1" cx="1310.1" cy="219" r="38.12"/><circle class="cls-1" cx="1188.94" cy="179.81" r="38.12"/><circle class="cls-1" cx="1238.86" cy="179.81" r="38.12"/><circle class="cls-1" cx="1282.66" cy="179.81" r="38.12"/><circle class="cls-1" cx="1691.61" cy="219" r="38.12"/><circle class="cls-1" cx="1742.41" cy="219" r="38.12"/><circle class="cls-1" cx="1792.33" cy="219" r="38.12"/><circle class="cls-1" cx="1836.13" cy="219" r="38.12"/><circle class="cls-1" cx="1714.97" cy="179.81" r="38.12"/><circle class="cls-1" cx="1764.89" cy="179.81" r="38.12"/><circle class="cls-1" cx="1808.69" cy="179.81" r="38.12"/></g></g></svg>