<svg xmlns="http://www.w3.org/2000/svg" viewBox="0 0 39.42 39.42"><defs><style>.cls-1{fill:none;stroke:#000;stroke-linecap:round;stroke-linejoin:round;stroke-width:3px;}</style></defs><g id="Layer_2" data-name="Layer 2"><g id="Layer_1-2" data-name="Layer 1"><path class="cls-1" d="M31.7,1.5h-24A6.23,6.23,0,0,0,1.5,7.72v24a6.22,6.22,0,0,0,6.22,6.22H20.86v-14h-4.7V18.49h4.7v-4c0-4.66,2.85-7.2,7-7.2a38.08,38.08,0,0,1,4.21.21v4.88H29.19c-2.26,0-2.7,1.07-2.7,2.65v3.48h5.4l-.7,5.45h-4.7v14H31.7a6.21,6.21,0,0,0,6.22-6.22v-24A6.22,6.22,0,0,0,31.7,1.5Z"/></g></g></svg>