<svg xmlns="http://www.w3.org/2000/svg" viewBox="0 0 218.47 107.05"><g id="Layer_2" data-name="Layer 2"><g id="Layer_1-2" data-name="Layer 1"><path d="M13.66,37.61,11,42.77V56.89H3.88V10H11v19l9.37-19H28L18,29.92l10.71,27H21.09Z" transform="translate(-3.88 -9.37)"/><path d="M33.47,49.86h7.09v7H33.47Z" transform="translate(-3.88 -9.37)"/><path d="M46.85,46.45v-26c0-6.56,4.49-11.11,11.11-11.11s11.12,4.55,11.12,11.11V26h-7V20.48c0-2.75-1.67-4.42-4.08-4.42S54,17.73,54,20.48v26c0,2.74,1.67,4.42,4.08,4.42s4.08-1.68,4.08-4.42V39.76h7v6.69C69.08,53,64.59,57.56,58,57.56S46.85,53,46.85,46.45Z" transform="translate(-3.88 -9.37)"/><path d="M74.23,56.89V10h7.09V29.78h8.44V10h7.09V56.89H89.76V36.48H81.32V56.89Z" transform="translate(-3.88 -9.37)"/><path d="M117.27,46.52h-7.63L108.1,56.89H101L108.77,10h9.5L126,56.89h-7.23Zm-.94-6.83-2.88-19.61-2.88,19.61Z" transform="translate(-3.88 -9.37)"/><path d="M130.18,10H138l9,31.47V10h7V56.89h-7.49l-9.37-30v30h-7Z" transform="translate(-3.88 -9.37)"/><path d="M3.88,68.89H15c6.77,0,11.12,4.42,11.12,11.18v5.49c0,6.76-4.35,11.18-11.12,11.18H11v19H3.88ZM14.66,90A4,4,0,0,0,19,85.69V79.94a4,4,0,0,0-4.35-4.35H11V90Z" transform="translate(-3.88 -9.37)"/><path d="M30.12,105.11V79.53c0-6.76,4.55-11.31,11.38-11.31s11.38,4.55,11.38,11.31v25.58c0,6.76-4.55,11.31-11.38,11.31S30.12,111.87,30.12,105.11Zm15.66,0V79.53c0-2.94-1.67-4.61-4.28-4.61s-4.28,1.67-4.28,4.61v25.58c0,2.94,1.67,4.62,4.28,4.62S45.78,108.05,45.78,105.11Z" transform="translate(-3.88 -9.37)"/><path d="M74.63,115.75,69.48,96.4H65.8v19.35H58.7V68.89H69.81c6.76,0,11.11,4.42,11.11,11.18v5.15c0,4.36-1.8,7.7-4.88,9.58l6,21Zm-8.83-26h3.68a4,4,0,0,0,4.35-4.35V79.94a4,4,0,0,0-4.35-4.35H65.8Z" transform="translate(-3.88 -9.37)"/><path d="M84.07,68.89h22.62v6.7H98.93v40.16h-7.1V75.59H84.07Z" transform="translate(-3.88 -9.37)"/><path d="M110.84,68.89h19.81v6.7H117.94V89.31h10V96h-10v19.75h-7.1Z" transform="translate(-3.88 -9.37)"/><path d="M134.2,105.11V79.53c0-6.76,4.55-11.31,11.38-11.31S157,72.77,157,79.53v25.58c0,6.76-4.55,11.31-11.38,11.31S134.2,111.87,134.2,105.11Zm15.66,0V79.53c0-2.94-1.67-4.61-4.28-4.61s-4.29,1.67-4.29,4.61v25.58c0,2.94,1.68,4.62,4.29,4.62S149.86,108.05,149.86,105.11Z" transform="translate(-3.88 -9.37)"/><path d="M162.78,68.89h7.1v40.17h12.65v6.69H162.78Z" transform="translate(-3.88 -9.37)"/><path d="M186.67,68.89h7.1v46.86h-7.1Z" transform="translate(-3.88 -9.37)"/><path d="M199.59,105.11V79.53c0-6.76,4.55-11.31,11.38-11.31s11.38,4.55,11.38,11.31v25.58c0,6.76-4.55,11.31-11.38,11.31S199.59,111.87,199.59,105.11Zm15.67,0V79.53c0-2.94-1.68-4.61-4.29-4.61s-4.28,1.67-4.28,4.61v25.58c0,2.94,1.67,4.62,4.28,4.62S215.26,108.05,215.26,105.11Z" transform="translate(-3.88 -9.37)"/></g></g></svg>