<svg xmlns="http://www.w3.org/2000/svg" viewBox="0 0 747.74 393.71"><defs><style>.cls-1{fill:#ff7664;}.cls-2{fill:#fff;stroke:#000;stroke-miterlimit:10;stroke-width:5.05px;}.cls-3{font-size:132.64px;fill:#2f2f2f;font-family:Bebas-Regular, Bebas;letter-spacing:0.02em;}.cls-4{letter-spacing:0.02em;}.cls-5{letter-spacing:0.02em;}.cls-6{font-size:22.17px;font-family:HelveticaLTStd-Light, Helvetica LT Std;font-weight:300;letter-spacing:0.12em;}.cls-7{letter-spacing:0.07em;}.cls-8{letter-spacing:0.12em;}</style></defs><g id="Layer_2" data-name="Layer 2"><g id="Layer_1-2" data-name="Layer 1"><rect class="cls-1" width="726.53" height="313.73" rx="27.75"/><path class="cls-2" d="M717.47,333.18H227.92L132.77,387.6l25.13-54.42H46.44a27.74,27.74,0,0,1-27.75-27.74V47.2A27.75,27.75,0,0,1,46.44,19.45h671A27.75,27.75,0,0,1,745.22,47.2V305.44A27.74,27.74,0,0,1,717.47,333.18Z"/><rect class="cls-1" x="78.67" y="217.39" width="606.56" height="53.43"/><text class="cls-3" transform="translate(91.26 254.72)">INTER<tspan class="cls-4" x="265.95" y="0">A</tspan><tspan class="cls-5" x="324.44" y="0">C</tspan><tspan x="383.33" y="0">TIVE</tspan></text><text class="cls-6" transform="translate(80.62 129.27)">WEBSITE | AR CAMERA | UI INTER<tspan class="cls-7" x="427.22" y="0">F</tspan><tspan class="cls-8" x="440.99" y="0">ACE | GAME</tspan></text></g></g></svg>