<?xml version="1.0" encoding="utf-8"?>
<!-- Generator: Adobe Illustrator 25.4.1, SVG Export Plug-In . SVG Version: 6.00 Build 0)  -->
<svg version="1.1" id="Layer_1" xmlns="http://www.w3.org/2000/svg" xmlns:xlink="http://www.w3.org/1999/xlink" x="0px" y="0px"
	 viewBox="0 0 259.7 259.3" style="enable-background:new 0 0 259.7 259.3;" xml:space="preserve">
<style type="text/css">
	.st0{fill:#FF7664;stroke:#2F2F2F;stroke-width:9.71;stroke-miterlimit:10;}
	.st1{fill:#FEF7E5;}
	.st2{font-family:'BlueHighway-Bold';}
	.st3{font-size:50.84px;}
	.st4{font-size:50.8044px;}
	.st5{font-size:50.9619px;}
	.st6{font-size:50.6822px;}
	.st7{font-size:50.5673px;}
	.st8{fill:#FF7664;stroke:#2F2F2F;stroke-width:4.92;stroke-linecap:round;stroke-linejoin:round;}
	.st9{fill:none;stroke:#2F2F2F;stroke-width:2.76;stroke-linecap:round;stroke-linejoin:round;}
	.st10{fill:#FFBAB1;stroke:#2F2F2F;stroke-width:2.76;stroke-linecap:round;stroke-linejoin:round;}
	.st11{fill:#FEF7E5;stroke:#2F2F2F;stroke-width:2.76;stroke-linecap:round;stroke-linejoin:round;}
	.st12{fill:#FEF7E5;stroke:#2F2F2F;stroke-width:2.4;stroke-linecap:round;stroke-linejoin:round;}
	.st13{fill:none;stroke:#2F2F2F;stroke-width:2.4;stroke-linecap:round;stroke-linejoin:round;}
	.st14{fill:#2F2F2F;stroke:#2F2F2F;stroke-width:2.73;stroke-linecap:round;stroke-linejoin:round;}
	.st15{fill:#FFFFFF;stroke:#FEF7E5;stroke-width:1.81;stroke-linecap:round;stroke-linejoin:round;}
	.st16{fill:#2F2F2F;}
	.st17{fill:#FFFFFF;}
	.st18{fill:#2F2F2F;stroke:#FFFFFF;stroke-width:2.76;stroke-linecap:round;stroke-linejoin:round;}
	.st19{fill:#2F2F2F;stroke:#FEF7E5;stroke-width:2.76;stroke-linecap:round;stroke-linejoin:round;}
</style>
<g id="Layer_2_00000176745681405621268810000005794419914107832200_">
	<g id="Layer_1-2">
		<circle class="st0" cx="130.1" cy="129.7" r="124.8"/>
		<text transform="matrix(-0.5009 -0.8655 0.8655 -0.5009 63.0503 172.6001)" class="st1 st2 st3">I</text>
		<text transform="matrix(-0.3102 -0.9507 0.9507 -0.3102 57.5106 164.731)" class="st1 st2 st4">N</text>
		<text transform="matrix(-2.792161e-02 -0.9996 0.9996 -2.792161e-02 50.11 141.8901)" class="st1 st2 st3">T</text>
		<text transform="matrix(0.2284 -0.9736 0.9736 0.2284 49.5299 119.6105)" class="st1 st2 st3">E</text>
		<text transform="matrix(0.4789 -0.8779 0.8779 0.4789 53.6595 100.3802)" class="st1 st2 st5">R</text>
		<text transform="matrix(0.6955 -0.7185 0.7185 0.6955 64.7101 80.0599)" class="st1 st2 st3">A</text>
		<text transform="matrix(0.8653 -0.5012 0.5012 0.8653 78.8199 64.84)" class="st1 st2 st3">C</text>
		<text transform="matrix(0.973 -0.2307 0.2307 0.973 99.9394 52.6191)" class="st1 st2 st6">T</text>
		<text transform="matrix(0.9993 -3.646929e-02 3.646929e-02 0.9993 122.09 47.91)" class="st1 st2 st3">I</text>
		<text transform="matrix(0.9853 0.1709 -0.1709 0.9853 131.6605 46.6808)" class="st1 st2 st7">V</text>
		<text transform="matrix(0.9012 0.4333 -0.4333 0.9012 155.6501 51.12)" class="st1 st2 st3">E</text>
		<path class="st8" d="M109.3,58.2c0,0,0.6-8.3,6.3-8.1c2.5,0.1,80.6,10.3,80.6,10.3s5.5,0.2,9.3,2.7l6.8,5.9c0,0,2.1,0.8,0.8,5.3
			l-29.7,142.5c0,0-2.3,8.4-7.7,11.1c0,0-13.5,2.6-20.6,1.5l-73.7-17.1c0,0-3.1-0.8-2.6-6.1L109.3,58.2z"/>
		<path class="st9" d="M202.5,66.7l-29.1,144.8c0,0-1.2,14.5-18.2,17.6"/>
		<path class="st10" d="M110.2,188.8l6.7-2.2c1.2-0.4,2.6,0.3,3,1.5l0,0c0.4,1.2-0.3,2.6-1.5,3l-6.7,2.2c-1.2,0.4-2.6-0.3-3-1.5l0,0
			C108.3,190.5,109,189.2,110.2,188.8z"/>
		<path class="st11" d="M126.3,191.5l6.7-2.2c1.2-0.4,2.6,0.3,3,1.5l0,0c0.4,1.2-0.3,2.6-1.5,3l-6.7,2.2c-1.2,0.4-2.6-0.3-3-1.5l0,0
			C124.4,193.2,125.1,191.9,126.3,191.5z"/>
		<circle class="st10" cx="149.7" cy="173" r="6.1"/>
		<circle class="st11" cx="167.2" cy="168.3" r="6.1"/>
		<path class="st12" d="M115.1,160.4l-4.1-0.8c-0.8-0.2-1.3-1-1.1-1.8l0.9-4.5c0.2-0.8-0.3-1.6-1.1-1.8l-3.8-0.7
			c-0.8-0.1-1.6,0.4-1.7,1.3l-0.9,4.5c-0.1,0.8-0.9,1.4-1.7,1.3c0,0,0,0,0,0l-4.1-0.8c-0.8-0.1-1.6,0.4-1.7,1.2c0,0,0,0,0,0
			l-0.8,4.1c-0.2,0.8,0.3,1.6,1.1,1.8c0,0,0,0,0,0l4.1,0.8c0.8,0.2,1.3,1,1.1,1.8c0,0,0,0,0,0l-0.9,4.5c-0.2,0.8,0.3,1.6,1.1,1.8
			l3.8,0.7c0.8,0.1,1.6-0.4,1.7-1.3l0.9-4.5c0.1-0.8,0.9-1.4,1.7-1.3l4.1,0.8c0.8,0.1,1.6-0.4,1.7-1.3l0.8-4.1
			C116.4,161.5,115.9,160.7,115.1,160.4C115.1,160.5,115.1,160.5,115.1,160.4z"/>
		<circle class="st13" cx="105.5" cy="162.2" r="3"/>
		<path class="st14" d="M173,144.8l-64.9-10.6c-1.7-0.3-2.9-1.9-2.6-3.7c0,0,0,0,0-0.1l12.7-66.1c0.3-1.7,1.9-2.8,3.6-2.6l65.8,9.6
			c1.7,0.3,3,1.9,2.7,3.6c0,0.1,0,0.1,0,0.2l-13.6,67.2C176.3,144,174.7,145.1,173,144.8z"/>
		<path class="st15" d="M167.5,109l-17.4-2.4l2.9-21c0.7-4.8,5.1-8.1,9.9-7.5l0,0c4.8,0.7,8.1,5.1,7.5,9.9L167.5,109z"/>
		<path class="st16" d="M166.9,109.9l-10.3-1.4l2.9-20.7c0.4-2.9,3-4.8,5.9-4.4l0,0c2.9,0.4,4.8,3,4.4,5.9L166.9,109.9z"/>
		<polygon class="st17" points="157.2,91 163.6,95.4 156.3,97.5 		"/>
		<path class="st15" d="M137.4,105.3c-2.8-1.4-5.7-2.4-8.7-3.1c-3.8-0.7-8.6,0.6-8.6,0.6l3-20.9c0.7-4.8,5.1-8.1,9.9-7.5l0,0
			c4.8,0.7,8.1,5.1,7.5,9.9L137.4,105.3z"/>
		<path class="st16" d="M136.8,106.2l-10.1-3.9l2.7-18.2c0.4-2.9,3-4.8,5.9-4.4l0,0c2.9,0.4,4.8,3,4.4,5.9L136.8,106.2z"/>
		<polygon class="st17" points="127.1,87.3 133.5,91.7 126.2,93.8 		"/>
		<path class="st18" d="M160.1,120c0,0-13.8,8.7-27.6,5.6C132.5,125.6,154.1,145.7,160.1,120z"/>
		<path class="st19" d="M158.3,115.8c0,0,2.8,7.2,9.5,5.7"/>
		<circle class="st1" cx="114.6" cy="118.3" r="1.4"/>
		<circle class="st1" cx="124.6" cy="116.8" r="1.4"/>
		<circle class="st1" cx="120.4" cy="121.9" r="1.4"/>
		<circle class="st1" cx="166.1" cy="113.9" r="1.4"/>
		<circle class="st1" cx="176.2" cy="112.3" r="1.4"/>
		<circle class="st1" cx="171.9" cy="117.4" r="1.4"/>
		<path class="st19" d="M145.6,111.6c0,0-6-9.5-10.7-6.8s4.5,8.9,8.1,10"/>
	</g>
</g>
</svg>
