<svg xmlns="http://www.w3.org/2000/svg" viewBox="0 0 302.63 339.79"><defs><style>.cls-1{fill:#f7bf4f;stroke-width:11.79px;}.cls-1,.cls-12,.cls-13,.cls-14,.cls-3,.cls-4,.cls-5,.cls-7,.cls-9{stroke:#2f2f2f;}.cls-1,.cls-12,.cls-13,.cls-14,.cls-3,.cls-5,.cls-6,.cls-7,.cls-8,.cls-9{stroke-linecap:round;stroke-linejoin:round;}.cls-2{font-size:78.12px;font-family:BlueHighway-Bold, Blue Highway;font-weight:700;letter-spacing:0.04em;}.cls-14,.cls-2{fill:#fef7e5;}.cls-3{fill:#ffd05e;stroke-width:6.74px;}.cls-10,.cls-4{fill:#2f2f2f;}.cls-4{stroke-miterlimit:10;stroke-width:4.55px;}.cls-13,.cls-5,.cls-6,.cls-7,.cls-8{fill:none;}.cls-5{stroke-width:6.11px;}.cls-6,.cls-8{stroke:#fff;}.cls-6{stroke-width:3.16px;}.cls-7{stroke-width:4.99px;}.cls-8{stroke-width:1.34px;}.cls-11,.cls-12,.cls-9{fill:#fff;}.cls-9{stroke-width:3.35px;}.cls-12,.cls-13,.cls-14{stroke-width:3.47px;}</style></defs><g id="Layer_2" data-name="Layer 2"><g id="Layer_1-2" data-name="Layer 1"><rect class="cls-1" x="45.14" y="26.19" width="212.35" height="287.41" rx="33.29" transform="translate(84.12 -47.46) rotate(24.51)"/><text class="cls-2" transform="translate(102.32 71.19) rotate(24.51)">IDEAS</text><path class="cls-3" d="M181.13,246.39s5.81-4.34,5-13.3-5.81-17.84,3.67-39.83,21.77-45.41,2-74.38C181.75,104.15,160.45,85,122,93.65c-42.32,9.58-49.06,52.72-47,65.19,4.55,27.56,16.49,33.24,27.28,49.4C112,222.76,117,234,118.87,240.13s6.28,14.35,9.87,14.63S171.81,250.87,181.13,246.39Z"/><path class="cls-4" d="M134.42,290s.42,2.59,4.82,5.21,9.33,8.47,13.24,9.4,16.78,1.08,18.78-1.68,5.92-8.69,9.8-13.52,5.5-5.75,4.54-7.59-14,5.26-21.95,6.73C146.2,291.77,131,287.66,134.42,290Z"/><path class="cls-5" d="M141.84,250.84S135,230.23,138.18,228s27.23-7,28.07-4.48,1.24,7.77,2,12.52,1.32,10.42,1.32,10.42"/><path class="cls-4" d="M185.12,281.4c3.08-1.63.28-5.68.28-5.68C189.68,270.83,184,268,184,268c2.73-2.65-1.26-7.32-1.26-7.32,2.44-2.61-2.09-7.42-2.09-7.42a7.14,7.14,0,0,0,1.15-4.17l-53.86,8.88a7.13,7.13,0,0,0,2.4,3.6s-2.81,6,.32,7.7c0,0-2.33,5.69,1.09,7.35,0,0-4.54,4.49,1.05,7.81,0,0-1.32,4.42,2,5.31C134.81,289.71,153.65,298.1,185.12,281.4Z"/><path class="cls-6" d="M134.63,262.54a188.06,188.06,0,0,0,41.45-6.62"/><path class="cls-6" d="M136.33,270.15a187.75,187.75,0,0,0,41.45-6.63"/><path class="cls-6" d="M137.56,277.83A187.83,187.83,0,0,0,179,271.2"/><path class="cls-6" d="M138.63,284.55a187.75,187.75,0,0,0,41.45-6.63"/><path class="cls-7" d="M164.31,223.78l-1.07-6.69a3.55,3.55,0,0,0-3.56-3.2c-3.25,0-16.74,2.68-16.74,2.68s-3.75,1.62-3.54,4.16.73,6.91.73,6.91"/><path class="cls-8" d="M143.16,216.3l-28.86-55s10.11-.95,10.59-5"/><path class="cls-8" d="M153.11,151.82c1.72,3.71,11.62,1.47,11.62,1.47l-8.18,60.87"/><polyline class="cls-8" points="127.03 155.99 128.91 157.34 131.18 154.91 133.62 156.59 135.41 154.23 137.65 155.94 139.34 153.6 141.97 155.25 144.14 152.84 147.13 155.22 148.75 152.1 151.21 154.56 153.1 151.82"/><line class="cls-8" x1="126.32" y1="159.28" x2="136.75" y2="176.21"/><line class="cls-8" x1="153.48" y1="154.2" x2="147.5" y2="174.5"/><path class="cls-8" d="M143.25,178.28s5.6-.47,6.54-1-4.33-4.56-8.27-2.8S130.77,180,143.25,178.28Z"/><line class="cls-8" x1="148.23" y1="177.68" x2="152.59" y2="213.25"/><line class="cls-8" x1="144.81" y1="214.49" x2="139.16" y2="179.12"/><path class="cls-9" d="M149.56,133.32h0a11,11,0,0,1,11,11V171a0,0,0,0,1,0,0H138.52a0,0,0,0,1,0,0V144.36a11,11,0,0,1,11-11Z" transform="translate(-27.98 33.83) rotate(-11.81)"/><path class="cls-10" d="M154,138.39h0a6.57,6.57,0,0,1,6.57,6.57v26.37a0,0,0,0,1,0,0H147.47a0,0,0,0,1,0,0V145A6.57,6.57,0,0,1,154,138.39Z" transform="translate(-28.43 34.81) rotate(-11.81)"/><polygon class="cls-11" points="144.34 151.42 153.83 153.85 146.02 159.48 144.34 151.42"/><path class="cls-9" d="M127,176.75a45,45,0,0,0-11.63.09c-4.78.78-10,4.43-10,4.43L99.92,155.2a11,11,0,0,1,8.55-13.07h0a11,11,0,0,1,13.06,8.55Z"/><path class="cls-10" d="M126.6,178.05l-13.68-.33-4.58-22.8a6.57,6.57,0,0,1,5.09-7.77h0a6.56,6.56,0,0,1,7.77,5.08Z"/><polygon class="cls-11" points="107.1 159.83 116.59 162.26 108.79 167.89 107.1 159.83"/><path class="cls-12" d="M160.17,184.51s-12.68,16.16-30.31,18.39C129.86,202.9,164,217.55,160.17,184.51Z"/><path class="cls-13" d="M156.27,180.32s6.32,7.34,13.65,2.72"/><circle class="cls-10" cx="105.44" cy="201.91" r="1.72"/><circle class="cls-10" cx="116.7" cy="195.76" r="1.72"/><circle class="cls-10" cx="113.86" cy="203.62" r="1.72"/><circle class="cls-10" cx="164.68" cy="174.69" r="1.72"/><circle class="cls-10" cx="175.93" cy="168.55" r="1.72"/><circle class="cls-10" cx="173.09" cy="176.41" r="1.72"/><path class="cls-14" d="M139.4,180.67s-11.22-8.73-15.56-3.55,9.13,8.68,13.83,8.42"/></g></g></svg>