<svg xmlns="http://www.w3.org/2000/svg" viewBox="0 0 295.39 223.6"><defs><style>.cls-1,.cls-5,.cls-6,.cls-8{fill:#6695cc;}.cls-1,.cls-10,.cls-17,.cls-18,.cls-19,.cls-3,.cls-5,.cls-6,.cls-7,.cls-8,.cls-9{stroke:#2f2f2f;}.cls-1,.cls-11,.cls-13,.cls-14,.cls-16,.cls-17,.cls-19,.cls-5,.cls-6,.cls-7,.cls-8,.cls-9{stroke-linecap:round;}.cls-1,.cls-11,.cls-13,.cls-14,.cls-16,.cls-17,.cls-19,.cls-3,.cls-5,.cls-6,.cls-7,.cls-8,.cls-9{stroke-linejoin:round;}.cls-1{stroke-width:4.22px;}.cls-2{font-size:41.03px;font-family:BlueHighway-Bold, Blue Highway;font-weight:700;}.cls-15,.cls-2,.cls-7{fill:#fef7e5;}.cls-16,.cls-3{fill:none;}.cls-3{stroke-width:5.81px;}.cls-10,.cls-13,.cls-14,.cls-4{fill:#2f2f2f;}.cls-5{stroke-width:1.92px;}.cls-6,.cls-9{stroke-width:2.71px;}.cls-7,.cls-8{stroke-width:1.83px;}.cls-9{fill:#999;}.cls-10,.cls-18{stroke-miterlimit:10;}.cls-10,.cls-16{stroke-width:2.21px;}.cls-11,.cls-12,.cls-17,.cls-18,.cls-19{fill:#fff;}.cls-11,.cls-14,.cls-16{stroke:#fef7e5;}.cls-11{stroke-width:1.46px;}.cls-13{stroke:#fff;}.cls-13,.cls-14{stroke-width:2.22px;}.cls-16{opacity:0.29;}.cls-17{stroke-width:1.69px;}.cls-18{stroke-width:1.36px;}.cls-19{stroke-width:1.94px;}</style></defs><g id="Layer_2" data-name="Layer 2"><g id="Layer_1-2" data-name="Layer 1"><ellipse class="cls-1" cx="147.69" cy="111.8" rx="146.19" ry="108.84" transform="translate(-14.01 21.44) rotate(-7.93)"/><text class="cls-2" transform="matrix(0.32, -0.95, 0.95, 0.32, 35.1, 118.29)">M</text><text class="cls-2" transform="translate(42.38 97.08) rotate(-52.24)">O</text><text class="cls-2" transform="translate(54.13 81.84) rotate(-41.07)">T</text><text class="cls-2" transform="matrix(0.83, -0.56, 0.56, 0.83, 68.52, 69.76)">I</text><text class="cls-2" transform="matrix(0.89, -0.46, 0.46, 0.89, 75.16, 64.8)">O</text><text class="cls-2" transform="matrix(0.94, -0.33, 0.33, 0.94, 94.85, 54.67)">N</text><text class="cls-2" transform="translate(114.29 48.1) rotate(-14.21)"> </text><text class="cls-2" transform="translate(123.72 45.44) rotate(-9.04)">G</text><text class="cls-2" transform="translate(145.27 42.08) rotate(-2.35)">R</text><text class="cls-2" transform="matrix(1, 0.08, -0.08, 1, 164.92, 41.27)">A</text><text class="cls-2" transform="translate(184.22 42.74) rotate(11.64)">P</text><text class="cls-2" transform="translate(202.49 46.39) rotate(20.31)">H</text><text class="cls-2" transform="translate(221.24 53.72) rotate(27.99)">I</text><text class="cls-2" transform="matrix(0.79, 0.61, -0.61, 0.79, 228.56, 56.97)">C</text><text class="cls-2" transform="translate(244.27 68.93) rotate(53.67)">S</text><path class="cls-3" d="M85.3,150.56s.45,7.45,1.4,8.14S163,196,163,196s9.66,4.39,16,4A128.06,128.06,0,0,0,193,198.23l12.36-7.2L87.05,152"/><path class="cls-3" d="M182.4,193.6l31.11-2s2.45,1.48,5.05-5.92,22.29-61.93,23.29-74.46c0,0-.28-5.63-5-7.39s-22.19-9.47-30.16-12-63.39-18.4-63.39-18.4"/><path class="cls-3" d="M201.23,92.43c10.62,4.32,8,3.82,8,3.82a7.71,7.71,0,0,1,2.89,8.49c-1.5,5.66-7.71,27.64-14.85,50.31-3.57,11.33-11.31,34.18-12.34,35.81s-3,4.67-7,3.35-48.21-20.13-54-23.49c0,0-42.41-21.31-43.4-23.23s-2.27-2-.65-10.57S98.8,72.23,98.8,72.23s2.67-11.07,10.44-8.93C109.24,63.3,178.77,83.28,201.23,92.43Z"/><path class="cls-3" d="M170.23,81.16s2.73-7.33,9.55-5.35,4.8,9.84,4.8,9.84Z"/><line class="cls-3" x1="176.19" y1="74.69" x2="169.44" y2="31.44"/><line class="cls-3" x1="240.41" y1="68.07" x2="184.21" y2="79.59"/><path class="cls-3" d="M167.28,27.7s1.87-.78,2.85-.4.54,3.67.54,3.67a2.67,2.67,0,0,1-2.39.61C167.71,31.48,167.28,27.7,167.28,27.7Z"/><path class="cls-3" d="M244.64,65.54s.88,1.82.56,2.83-3.63.74-3.63.74a2.68,2.68,0,0,1-.75-2.36C240.89,66.18,244.64,65.54,244.64,65.54Z"/><path class="cls-3" d="M196.79,94.79c9.77,4,7.35,3.54,7.35,3.54a7.16,7.16,0,0,1,2.64,7.88c-1.41,5.26-7.19,25.72-13.83,46.8-3.32,10.55-10.51,31.81-11.47,33.33s-2.8,4.34-6.44,3.13-44.35-18.57-49.69-21.68c0,0-39-19.69-39.92-21.47s-2.08-1.88-.57-9.82,17.61-60.19,17.61-60.19S105,66,112.11,68C112.11,68,176.11,86.36,196.79,94.79Z"/><path class="cls-3" d="M117.2,78.65s-6.12-3-10.23,4.89-12,33.31-14.13,45.21-.76,12.86,1.9,15.64,45.53,22.89,57.49,25.51c0,0,7.35.16,9.8-6.79s16.63-47.12,17.36-55.53-7.1-12.07-9.92-12.62S124.71,80.72,117.2,78.65Z"/><path class="cls-3" d="M146.11,131.27l-11.68-7.94,9.57-14.1a7.06,7.06,0,0,1,9.82-1.87h0a7.07,7.07,0,0,1,1.87,9.81Z"/><path class="cls-3" d="M145.35,131.67l-7-4.72,9.48-14a4.21,4.21,0,0,1,5.84-1.12h0a4.21,4.21,0,0,1,1.12,5.84Z"/><polygon class="cls-3" points="145.06 114.6 148.16 120.04 142.1 118.95 145.06 114.6"/><path class="cls-3" d="M125.69,117.87a29.22,29.22,0,0,0-5.21-5.32,18.74,18.74,0,0,0-6.48-2.61l9.58-14.11A7.07,7.07,0,0,1,133.39,94h0a7.06,7.06,0,0,1,1.88,9.81Z"/><path class="cls-3" d="M124.92,118.27,119,111.83l8.46-12.24a4.21,4.21,0,0,1,5.84-1.12h0a4.2,4.2,0,0,1,1.11,5.84Z"/><polygon class="cls-3" points="124.64 101.2 127.74 106.64 121.68 105.56 124.64 101.2"/><path class="cls-3" d="M136.87,136.59s-13.07,1.35-21.94-5.77C114.93,130.82,123.35,153,136.87,136.59Z"/><path class="cls-3" d="M137.07,132.94s-.57,6.16,4.81,7.49"/><circle class="cls-3" cx="104.54" cy="119.14" r="1.1"/><circle class="cls-3" cx="112.37" cy="121.59" r="1.1"/><circle class="cls-3" cx="107.49" cy="123.78" r="1.1"/><circle class="cls-3" cx="143.4" cy="134.3" r="1.1"/><circle class="cls-3" cx="151.23" cy="136.75" r="1.1"/><circle class="cls-3" cx="146.35" cy="138.94" r="1.1"/><path class="cls-3" d="M129.41,125.33s-1-9-5.29-8.74.07,8.06,2.28,10.11"/><path class="cls-3" d="M171.3,100.09s4.07,3.55,3.95,7.6-16.82,53.79-16.82,53.79-3.28,5.39-8.3,4-49.46-19.74-52.51-23-3.13-4.32-2.92-6.86"/><path class="cls-3" d="M187.59,126.49a9.79,9.79,0,0,1,3.76,6.43c.79,4.53-1.56,7.81-2.33,9.12-.91,1.53-4.74,4.16-7.28,3.17s-4.69-3.67-4.85-7.73a13.87,13.87,0,0,1,3.51-9.15C181.58,127.27,183.64,124.61,187.59,126.49Z"/><path class="cls-3" d="M185.42,128.88l-6.69,10.4s1.06,1.57,1.77,1.59,6.23-9.33,6.23-9.33,1.35-.61,1.79-.15C188.52,131.39,187.35,128.92,185.42,128.88Z"/><path class="cls-3" d="M187.67,131.77a7.32,7.32,0,0,1-.78,7.92s-2,3.39-5.28,1.14"/><path class="cls-3" d="M184.12,129.49a4.31,4.31,0,0,0-3.67,2.42c-.91,1.67-1.58,4.24-1.15,5.54"/><path class="cls-3" d="M180.15,150.28a9.79,9.79,0,0,1,3.76,6.43c.79,4.52-1.56,7.81-2.33,9.12-.9,1.53-4.74,4.16-7.28,3.17s-4.69-3.67-4.84-7.74a13.79,13.79,0,0,1,3.5-9.14C174.14,151.06,176.2,148.4,180.15,150.28Z"/><path class="cls-3" d="M178,152.67l-6.69,10.4s1.07,1.56,1.77,1.59,6.23-9.33,6.23-9.33,1.36-.62,1.8-.16C181.09,155.17,179.91,152.7,178,152.67Z"/><path class="cls-3" d="M180.27,155s2.25,4.48-.82,8.45c0,0-2,3.39-5.27,1.14"/><path class="cls-3" d="M176.69,153.28A4.32,4.32,0,0,0,173,155.7c-.91,1.67-1.58,4.23-1.15,5.54"/><ellipse class="cls-3" cx="165.25" cy="172.77" rx="3.05" ry="2.36" transform="translate(-48.97 278.93) rotate(-72.64)"/><ellipse class="cls-3" cx="163.55" cy="172.24" rx="3.05" ry="2.36" transform="translate(-49.65 276.93) rotate(-72.64)"/><line class="cls-3" x1="185.66" y1="108.37" x2="198.94" y2="113.33"/><line class="cls-3" x1="184.95" y1="110.67" x2="198.22" y2="115.62"/><line class="cls-3" x1="184.23" y1="112.96" x2="197.5" y2="117.92"/><line class="cls-3" x1="187.86" y1="101.35" x2="201.14" y2="106.31"/><line class="cls-3" x1="187.14" y1="103.64" x2="200.42" y2="108.6"/><line class="cls-3" x1="186.43" y1="105.94" x2="199.7" y2="110.89"/><line class="cls-3" x1="183.51" y1="115.25" x2="196.79" y2="120.21"/><line class="cls-3" x1="182.83" y1="117.43" x2="196.11" y2="122.39"/><line class="cls-3" x1="182.11" y1="119.73" x2="195.39" y2="124.69"/><path class="cls-4" d="M85.3,150.56s.45,7.45,1.4,8.14S163,196,163,196s9.66,4.39,16,4A128.06,128.06,0,0,0,193,198.23l12.36-7.2L87.05,152"/><path class="cls-5" d="M182.4,193.6l31.11-2s2.45,1.48,5.05-5.92,22.29-61.93,23.29-74.46c0,0-.28-5.63-5-7.39s-22.19-9.47-30.16-12-63.39-18.4-63.39-18.4"/><path class="cls-6" d="M201.23,92.43c10.62,4.32,8,3.82,8,3.82a7.71,7.71,0,0,1,2.89,8.49c-1.5,5.66-7.71,27.64-14.85,50.31-3.57,11.33-11.31,34.18-12.34,35.81s-3,4.67-7,3.35-48.21-20.13-54-23.49c0,0-42.41-21.31-43.4-23.23s-2.27-2-.65-10.57S98.8,72.23,98.8,72.23s2.67-11.07,10.44-8.93C109.24,63.3,178.77,83.28,201.23,92.43Z"/><path class="cls-7" d="M170.23,81.16s2.73-7.33,9.55-5.35,4.8,9.84,4.8,9.84Z"/><line class="cls-8" x1="176.19" y1="74.69" x2="169.44" y2="31.44"/><line class="cls-8" x1="240.41" y1="68.07" x2="184.21" y2="79.59"/><path class="cls-7" d="M167.28,27.7s1.87-.78,2.85-.4.54,3.67.54,3.67a2.67,2.67,0,0,1-2.39.61C167.71,31.48,167.28,27.7,167.28,27.7Z"/><path class="cls-7" d="M244.64,65.54s.88,1.82.56,2.83-3.63.74-3.63.74a2.68,2.68,0,0,1-.75-2.36C240.89,66.18,244.64,65.54,244.64,65.54Z"/><path class="cls-9" d="M196.79,94.79c9.77,4,7.35,3.54,7.35,3.54a7.16,7.16,0,0,1,2.64,7.88c-1.41,5.26-7.19,25.72-13.83,46.8-3.32,10.55-10.51,31.81-11.47,33.33s-2.8,4.34-6.44,3.13-44.35-18.57-49.69-21.68c0,0-39-19.69-39.92-21.47s-2.08-1.88-.57-9.82,17.61-60.19,17.61-60.19S105,66,112.11,68C112.11,68,176.11,86.36,196.79,94.79Z"/><path class="cls-10" d="M117.2,78.65s-6.12-3-10.23,4.89-12,33.31-14.13,45.21-.76,12.86,1.9,15.64,45.53,22.89,57.49,25.51c0,0,7.35.16,9.8-6.79s16.63-47.12,17.36-55.53-7.1-12.07-9.92-12.62S124.71,80.72,117.2,78.65Z"/><path class="cls-11" d="M146.11,131.27l-11.68-7.94,9.57-14.1a7.06,7.06,0,0,1,9.82-1.87h0a7.07,7.07,0,0,1,1.87,9.81Z"/><path class="cls-4" d="M145.35,131.67l-7-4.72,9.48-14a4.21,4.21,0,0,1,5.84-1.12h0a4.21,4.21,0,0,1,1.12,5.84Z"/><polygon class="cls-12" points="145.06 114.6 148.16 120.04 142.1 118.95 145.06 114.6"/><path class="cls-11" d="M125.69,117.87a29.22,29.22,0,0,0-5.21-5.32,18.74,18.74,0,0,0-6.48-2.61l9.58-14.11A7.07,7.07,0,0,1,133.39,94h0a7.06,7.06,0,0,1,1.88,9.81Z"/><path class="cls-4" d="M124.92,118.27,119,111.83l8.46-12.24a4.21,4.21,0,0,1,5.84-1.12h0a4.2,4.2,0,0,1,1.11,5.84Z"/><polygon class="cls-12" points="124.64 101.2 127.74 106.64 121.68 105.56 124.64 101.2"/><path class="cls-13" d="M136.87,136.59s-13.07,1.35-21.94-5.77C114.93,130.82,123.35,153,136.87,136.59Z"/><path class="cls-14" d="M137.07,132.94s-.57,6.16,4.81,7.49"/><circle class="cls-15" cx="104.54" cy="119.14" r="1.1"/><circle class="cls-15" cx="112.37" cy="121.59" r="1.1"/><circle class="cls-15" cx="107.49" cy="123.78" r="1.1"/><circle class="cls-15" cx="143.4" cy="134.3" r="1.1"/><circle class="cls-15" cx="151.23" cy="136.75" r="1.1"/><circle class="cls-15" cx="146.35" cy="138.94" r="1.1"/><path class="cls-14" d="M129.41,125.33s-1-9-5.29-8.74.07,8.06,2.28,10.11"/><path class="cls-16" d="M171.3,100.09s4.07,3.55,3.95,7.6-16.82,53.79-16.82,53.79-3.28,5.39-8.3,4-49.46-19.74-52.51-23-3.13-4.32-2.92-6.86"/><path class="cls-4" d="M187.59,126.49a9.79,9.79,0,0,1,3.76,6.43c.79,4.53-1.56,7.81-2.33,9.12-.91,1.53-4.74,4.16-7.28,3.17s-4.69-3.67-4.85-7.73a13.87,13.87,0,0,1,3.51-9.15C181.58,127.27,183.64,124.61,187.59,126.49Z"/><path class="cls-17" d="M185.42,128.88l-6.69,10.4s1.06,1.57,1.77,1.59,6.23-9.33,6.23-9.33,1.35-.61,1.79-.15C188.52,131.39,187.35,128.92,185.42,128.88Z"/><path class="cls-17" d="M187.67,131.77a7.32,7.32,0,0,1-.78,7.92s-2,3.39-5.28,1.14"/><path class="cls-17" d="M184.12,129.49a4.31,4.31,0,0,0-3.67,2.42c-.91,1.67-1.58,4.24-1.15,5.54"/><path class="cls-4" d="M180.15,150.28a9.79,9.79,0,0,1,3.76,6.43c.79,4.52-1.56,7.81-2.33,9.12-.9,1.53-4.74,4.16-7.28,3.17s-4.69-3.67-4.84-7.74a13.79,13.79,0,0,1,3.5-9.14C174.14,151.06,176.2,148.4,180.15,150.28Z"/><path class="cls-17" d="M178,152.67l-6.69,10.4s1.07,1.56,1.77,1.59,6.23-9.33,6.23-9.33,1.36-.62,1.8-.16C181.09,155.17,179.91,152.7,178,152.67Z"/><path class="cls-17" d="M180.27,155s2.25,4.48-.82,8.45c0,0-2,3.39-5.27,1.14"/><path class="cls-17" d="M176.69,153.28A4.32,4.32,0,0,0,173,155.7c-.91,1.67-1.58,4.23-1.15,5.54"/><ellipse class="cls-18" cx="165.25" cy="172.77" rx="3.05" ry="2.36" transform="translate(-48.97 278.93) rotate(-72.64)"/><ellipse class="cls-18" cx="163.55" cy="172.24" rx="3.05" ry="2.36" transform="translate(-49.65 276.93) rotate(-72.64)"/><line class="cls-19" x1="185.66" y1="108.37" x2="198.94" y2="113.33"/><line class="cls-19" x1="184.95" y1="110.67" x2="198.22" y2="115.62"/><line class="cls-19" x1="184.23" y1="112.96" x2="197.5" y2="117.92"/><line class="cls-19" x1="187.86" y1="101.35" x2="201.14" y2="106.31"/><line class="cls-19" x1="187.14" y1="103.64" x2="200.42" y2="108.6"/><line class="cls-19" x1="186.43" y1="105.94" x2="199.7" y2="110.89"/><line class="cls-19" x1="183.51" y1="115.25" x2="196.79" y2="120.21"/><line class="cls-19" x1="182.83" y1="117.43" x2="196.11" y2="122.39"/><line class="cls-19" x1="182.11" y1="119.73" x2="195.39" y2="124.69"/></g></g></svg>