<svg xmlns="http://www.w3.org/2000/svg" viewBox="0 0 308.51 308.51"><defs><style>.cls-1,.cls-13,.cls-5,.cls-6,.cls-8{fill:#8d6dc3;}.cls-1,.cls-10,.cls-13,.cls-3,.cls-4,.cls-5,.cls-6,.cls-7,.cls-8,.cls-9{stroke:#2f2f2f;}.cls-1{stroke-miterlimit:10;stroke-width:9.71px;}.cls-2{font-size:52.69px;fill:#fef7e5;font-family:BlueHighway, Blue Highway;letter-spacing:0.04em;}.cls-3{fill:none;stroke-width:7.14px;}.cls-10,.cls-13,.cls-3,.cls-4,.cls-5,.cls-6,.cls-7,.cls-8,.cls-9{stroke-linejoin:round;}.cls-10,.cls-12,.cls-4,.cls-7{fill:#fff;}.cls-10,.cls-13,.cls-4,.cls-5,.cls-6,.cls-7,.cls-8,.cls-9{stroke-linecap:round;}.cls-4,.cls-5{stroke-width:3.28px;}.cls-6{stroke-width:2.38px;}.cls-7,.cls-8,.cls-9{stroke-width:2.62px;}.cls-11,.cls-9{fill:#2f2f2f;}.cls-10{stroke-width:2.41px;}.cls-13{stroke-width:2.48px;}</style></defs><g id="Layer_2" data-name="Layer 2"><g id="Layer_1-2" data-name="Layer 1"><rect class="cls-1" x="36.49" y="36.49" width="235.54" height="235.54" rx="41.4" transform="translate(154.26 -63.9) rotate(45)"/><text class="cls-2" transform="translate(40.04 167.67) rotate(-45)">PRINTING</text><path class="cls-3" d="M196.85,118.58s13.37-31.89,13.73-33c1.15-3.4,4-5.11,8.56-4.71s16.11,3.18,19,6.66,2.06,5.57,1.51,6.86l-14.32,33.52"/><path class="cls-3" d="M235.51,161l13.8,4.82s4.17-.92,2.85,6.52-9.4,33.12-9.4,33.12-1.48,9.94-5.5,14.37-43.71,30.12-43.71,30.12-1.86.46-6.83-.4S96,214.4,96,214.4l-29-13.79s-1.12-1.25-1.16-4.84,2.86-34.92,1.48-40-3.51-9.51-1.54-10.59,38.66-26.42,39.86-26.59,1.88-.13,6.42,2.28a49.84,49.84,0,0,0,5.61,2.76s8.55-2.18,10.08-1.85,4.85,1,6.3.6S235.51,161,235.51,161Z"/><path class="cls-3" d="M117.6,123.61,241.07,171.2a8.87,8.87,0,0,1,.83,6.25l-.9,3.29,9-7.59"/><path class="cls-3" d="M239.14,175.62S195.42,200.41,192.58,200,68.2,147.45,68.2,147.45"/><line class="cls-3" x1="96.92" y1="156.51" x2="129.18" y2="135.21"/><path class="cls-3" d="M175.92,191.56c.56-1.4,26.1-26.19,26.1-26.19"/><path class="cls-3" d="M112.51,128.52c1.28.55,102.27,42.12,102.27,42.12"/><path class="cls-3" d="M75.62,183.11l.48,16.5,1.57.72c13.75,6.24,82.69,35.9,82.08,35s1-18.09,1-18.09L79,184.56Z"/><polygon class="cls-3" points="85.73 195.16 82.02 185.86 160.79 217.22 160.39 224.19 85.73 195.16"/><polygon class="cls-3" points="137.98 131.71 150.67 123.56 159.12 106.67 234.3 131.18 229.12 146.64 237.81 149.05 234.92 157.72 224.27 164.5 137.98 131.71"/><path class="cls-3" d="M157.29,122.7c1.56,1.09,67.83,23.52,67.83,23.52"/><line class="cls-3" x1="191.82" y1="206.02" x2="189.6" y2="244.56"/><path class="cls-3" d="M153.23,193.6l-19.62-7.73,9.33-23.68a10.56,10.56,0,0,1,13.68-5.95h0a10.56,10.56,0,0,1,5.95,13.68Z"/><path class="cls-3" d="M152.25,194.43l-11.68-4.6,9.24-23.44a6.28,6.28,0,0,1,8.14-3.54h0a6.29,6.29,0,0,1,3.54,8.15Z"/><polygon class="cls-3" points="146.24 169.66 152.54 176.58 143.36 176.97 146.24 169.66"/><path class="cls-3" d="M119.09,180.77a43.44,43.44,0,0,0-9.33-6c-4.23-1.88-10.3-1.69-10.3-1.69l9.34-23.68a10.56,10.56,0,0,1,13.68-6h0a10.54,10.54,0,0,1,5.94,13.68Z"/><path class="cls-3" d="M118.1,181.6l-10.74-7.44,8.31-20.6a6.28,6.28,0,0,1,8.14-3.54h0a6.27,6.27,0,0,1,3.53,8.14Z"/><polygon class="cls-3" points="112.1 156.82 118.4 163.75 109.22 164.14 112.1 156.82"/><circle class="cls-3" cx="84.44" cy="175.7" r="1.65"/><circle class="cls-3" cx="96.12" cy="179.39" r="1.65"/><circle class="cls-3" cx="88.83" cy="182.64" r="1.65"/><circle class="cls-3" cx="151.84" cy="200.02" r="1.65"/><circle class="cls-3" cx="163.24" cy="204.51" r="1.65"/><circle class="cls-3" cx="155.74" cy="207.24" r="1.65"/><path class="cls-3" d="M127,190.41s-4.38-12.85-10.56-11,2.73,11.72,6.62,14"/><path class="cls-4" d="M196.85,118.58s13.37-31.89,13.73-33c1.15-3.4,4-5.11,8.56-4.71s16.11,3.18,19,6.66,2.06,5.57,1.51,6.86l-14.32,33.52"/><path class="cls-5" d="M235.51,161l13.8,4.82s4.17-.92,2.85,6.52-9.4,33.12-9.4,33.12-1.48,9.94-5.5,14.37-43.71,30.12-43.71,30.12-1.86.46-6.83-.4S96,214.4,96,214.4l-29-13.79s-1.12-1.25-1.16-4.84,2.86-34.92,1.48-40-3.51-9.51-1.54-10.59,38.66-26.42,39.86-26.59,1.88-.13,6.42,2.28a49.84,49.84,0,0,0,5.61,2.76s8.55-2.18,10.08-1.85,4.85,1,6.3.6S235.51,161,235.51,161Z"/><path class="cls-6" d="M117.6,123.61,241.07,171.2a8.87,8.87,0,0,1,.83,6.25l-.9,3.29,9-7.59"/><path class="cls-6" d="M239.14,175.62S195.42,200.41,192.58,200,68.2,147.45,68.2,147.45"/><line class="cls-7" x1="96.92" y1="156.51" x2="129.18" y2="135.21"/><path class="cls-7" d="M175.92,191.56c.56-1.4,26.1-26.19,26.1-26.19"/><path class="cls-7" d="M112.51,128.52c1.28.55,102.27,42.12,102.27,42.12"/><path class="cls-8" d="M75.62,183.11l.48,16.5,1.57.72c13.75,6.24,82.69,35.9,82.08,35s1-18.09,1-18.09L79,184.56Z"/><polygon class="cls-9" points="85.73 195.16 82.02 185.86 160.79 217.22 160.39 224.19 85.73 195.16"/><polygon class="cls-4" points="137.98 131.71 150.67 123.56 159.12 106.67 234.3 131.18 229.12 146.64 237.81 149.05 234.92 157.72 224.27 164.5 137.98 131.71"/><path class="cls-6" d="M157.29,122.7c1.56,1.09,67.83,23.52,67.83,23.52"/><line class="cls-7" x1="191.82" y1="206.02" x2="189.6" y2="244.56"/><path class="cls-10" d="M153.23,193.6l-19.62-7.73,9.33-23.68a10.56,10.56,0,0,1,13.68-5.95h0a10.56,10.56,0,0,1,5.95,13.68Z"/><path class="cls-11" d="M152.25,194.43l-11.68-4.6,9.24-23.44a6.28,6.28,0,0,1,8.14-3.54h0a6.29,6.29,0,0,1,3.54,8.15Z"/><polygon class="cls-12" points="146.24 169.66 152.54 176.58 143.36 176.97 146.24 169.66"/><path class="cls-10" d="M119.09,180.77a43.44,43.44,0,0,0-9.33-6c-4.23-1.88-10.3-1.69-10.3-1.69l9.34-23.68a10.56,10.56,0,0,1,13.68-6h0a10.54,10.54,0,0,1,5.94,13.68Z"/><path class="cls-11" d="M118.1,181.6l-10.74-7.44,8.31-20.6a6.28,6.28,0,0,1,8.14-3.54h0a6.27,6.27,0,0,1,3.53,8.14Z"/><polygon class="cls-12" points="112.1 156.82 118.4 163.75 109.22 164.14 112.1 156.82"/><circle class="cls-11" cx="84.44" cy="175.7" r="1.65"/><circle class="cls-11" cx="96.12" cy="179.39" r="1.65"/><circle class="cls-11" cx="88.83" cy="182.64" r="1.65"/><circle class="cls-11" cx="151.84" cy="200.02" r="1.65"/><circle class="cls-11" cx="163.24" cy="204.51" r="1.65"/><circle class="cls-11" cx="155.74" cy="207.24" r="1.65"/><path class="cls-13" d="M127,190.41s-4.38-12.85-10.56-11,2.73,11.72,6.62,14"/></g></g></svg>