<svg xmlns="http://www.w3.org/2000/svg" viewBox="0 0 253.87 280.8"><defs><style>.cls-1,.cls-3,.cls-4{fill:#70ce75;}.cls-1,.cls-11,.cls-12,.cls-13,.cls-14,.cls-4,.cls-5,.cls-6,.cls-8{stroke:#2f2f2f;}.cls-1{stroke-miterlimit:10;stroke-width:6.02px;}.cls-2{font-size:45.49px;fill:#fef7e5;font-family:BlueHighway-Bold, Blue Highway;font-weight:700;}.cls-11,.cls-12,.cls-13,.cls-14,.cls-4,.cls-5,.cls-6,.cls-8{stroke-linecap:round;stroke-linejoin:round;}.cls-4,.cls-5,.cls-6{stroke-width:6.19px;}.cls-10,.cls-11,.cls-13,.cls-5,.cls-8{fill:#fff;}.cls-12,.cls-14,.cls-6{fill:none;}.cls-7,.cls-9{fill:#2f2f2f;}.cls-7{opacity:0.17;}.cls-8{stroke-width:3.56px;}.cls-11,.cls-12{stroke-width:3.69px;}.cls-13{stroke-width:4.09px;}.cls-14{stroke-width:2.23px;}</style></defs><g id="Layer_2" data-name="Layer 2"><g id="Layer_1-2" data-name="Layer 1"><path class="cls-1" d="M108.5,8l-87,50.26A36.88,36.88,0,0,0,3,90.14V190.66a36.86,36.86,0,0,0,18.44,31.93l87.05,50.26a36.85,36.85,0,0,0,36.87,0l87-50.26a36.86,36.86,0,0,0,18.44-31.93V90.14a36.88,36.88,0,0,0-18.44-31.93L145.37,8A36.85,36.85,0,0,0,108.5,8Z"/><text class="cls-2" transform="translate(45.3 210) rotate(-87.93)">A</text><text class="cls-2" transform="matrix(0.04, -1, 1, 0.04, 46.17, 185.86)">D</text><text class="cls-2" transform="translate(47.02 162.4) rotate(-87.93)">V</text><text class="cls-2" transform="matrix(0.04, -1, 1, 0.04, 47.94, 136.9)">E</text><text class="cls-2" transform="matrix(0.04, -1, 1, 0.04, 48.71, 115.76)">R</text><text class="cls-2" transform="matrix(0.87, -0.48, 0.48, 0.87, 45.67, 98.32)">T</text><text class="cls-2" transform="translate(66.24 86.94) rotate(-28.96)">I</text><text class="cls-2" transform="translate(76.56 81.23) rotate(-28.96)">S</text><text class="cls-2" transform="translate(96.29 70.31) rotate(-28.96)">I</text><text class="cls-2" transform="matrix(0.87, -0.48, 0.48, 0.87, 106.61, 64.6)">N</text><text class="cls-2" transform="matrix(0.87, -0.48, 0.48, 0.87, 128.67, 52.39)">G</text><path class="cls-3" d="M146.23,187.75l-13.14,30.71s-14.21,20.45-8.7,23,16.38,6.71,16.38,6.71,4.27-.06,7.15-5.62,28-58.31,28-58.31Z"/><path class="cls-4" d="M212.77,150.58s6.51,5.57-.76,20.18c-5,10.14-9.47,10.4-14.91,11.7-5.27,1.25-16.24.55-16.24.55"/><ellipse class="cls-5" cx="143.76" cy="123.71" rx="72.93" ry="69.5" transform="translate(-41.05 166.32) rotate(-53.7)"/><path class="cls-6" d="M175.66,187.89s-24.7,49-27.74,54.69-7.48,6.26-10.06,5.29-2-3.64-1-7.31,5.25-7.06,5.25-7.06l14.74-31"/><path class="cls-6" d="M144.07,196.45s-16.54,32.87-16.67,33.91-6.29,9.78-5.17,10.17,15.63,7.34,15.63,7.34"/><ellipse class="cls-7" cx="141.95" cy="124.88" rx="45.46" ry="42.2" transform="translate(-7.62 240.52) rotate(-79.05)"/><path class="cls-8" d="M162.52,98.57h0a11.72,11.72,0,0,1,11.72,11.72v28.29a0,0,0,0,1,0,0H150.8a0,0,0,0,1,0,0V110.29A11.72,11.72,0,0,1,162.52,98.57Z" transform="translate(60.57 -54.86) rotate(23.44)"/><path class="cls-9" d="M164.75,106.17h0a7,7,0,0,1,7,7v28a0,0,0,0,1,0,0h-14a0,0,0,0,1,0,0v-28a7,7,0,0,1,7-7Z" transform="translate(62.78 -55.32) rotate(23.44)"/><polygon class="cls-10" points="158.44 114.73 165.19 122.66 154.97 122.76 158.44 114.73"/><path class="cls-8" d="M127.86,126.07A48.21,48.21,0,0,0,117.72,119c-4.62-2.25-11.37-2.26-11.37-2.26l11.25-26A11.73,11.73,0,0,1,133,84.69h0a11.73,11.73,0,0,1,6.1,15.42Z"/><path class="cls-9" d="M126.74,127l-11.66-8.67,10-22.58a7,7,0,0,1,9.17-3.62h0a7,7,0,0,1,3.63,9.17Z"/><polygon class="cls-10" points="120.99 99.21 127.73 107.13 117.51 107.23 120.99 99.21"/><path class="cls-11" d="M151.9,153.14s-20.91,6.24-37.57-2.63C114.33,150.51,134.93,184.11,151.9,153.14Z"/><path class="cls-12" d="M151.08,147.12s1,10.23,10.17,10.72"/><circle class="cls-9" cx="93.77" cy="134.69" r="1.83"/><circle class="cls-9" cx="107.29" cy="136.25" r="1.83"/><circle class="cls-9" cx="100.01" cy="141.33" r="1.83"/><circle class="cls-9" cx="161.82" cy="147.38" r="1.83"/><circle class="cls-9" cx="175.35" cy="148.95" r="1.83"/><circle class="cls-9" cx="168.07" cy="154.03" r="1.83"/><path class="cls-13" d="M139,126.13s-14.78-8.78-21-9.55a8,8,0,0,0-8.62,4.52c-1.71,3.43-2.47,8.36,2.42,11.47S128,142.65,128,142.65"/><path class="cls-14" d="M118.39,121.39a4.75,4.75,0,0,1-.21,5,5.51,5.51,0,0,1-4.64,2.69"/></g></g></svg>