<svg xmlns="http://www.w3.org/2000/svg" viewBox="0 0 36.42 36.42"><g id="Layer_2" data-name="Layer 2"><g id="Layer_1-2" data-name="Layer 1"><path d="M18.21,36.42A18.12,18.12,0,0,1,9.13,34L2,36.42l1.46-7.51A18,18,0,0,1,0,18.21,18.21,18.21,0,1,1,18.21,36.42ZM9.46,31l.54.34a15.5,15.5,0,1,0-4-3.6l.38.49-.79,4.1Z"/><path d="M9,11.21s1.07-1.86,1.94-2,2-.11,2.29.46,1.66,3.88,1.66,3.88a1.29,1.29,0,0,1-.13,1.12,10.77,10.77,0,0,1-1.15,1.35,1,1,0,0,0,0,1.18,21.34,21.34,0,0,0,2.56,3.14,13.79,13.79,0,0,0,4.16,2.44.81.81,0,0,0,.64-.19c.25-.25,1.6-1.94,1.6-1.94a1,1,0,0,1,1.16-.23c.72.33,3.84,1.88,3.84,1.88A.69.69,0,0,1,28,23a4.48,4.48,0,0,1-.68,2.36,5.47,5.47,0,0,1-3.8,1.86,16.71,16.71,0,0,1-9.32-4.18c-2.54-2.54-4.8-5.12-5.34-7.47S8.36,12.18,9,11.21Z"/></g></g></svg>